<svg width="180" height="49" viewBox="0 0 180 49" fill="none" xmlns="http://www.w3.org/2000/svg">
<g clip-path="url(#clip0_82_15)">
<path d="M5.20481 19.1739C3.93252 19.1739 2.99999 18.9112 2.40722 18.3856C1.81445 17.8459 1.51807 16.9725 1.51807 15.7652V11.9304C1.51807 10.709 1.78554 9.83551 2.32048 9.30999C2.85542 8.78448 3.74458 8.52173 4.98795 8.52173H5.57349C6.59999 8.52173 7.37349 8.80578 7.89397 9.37391C8.42892 9.92782 8.69638 10.7445 8.69638 11.8239V14.5935H3.36144V16.1913C3.36144 16.6316 3.49878 16.9725 3.77349 17.2139C4.04819 17.4553 4.453 17.5761 4.98795 17.5761H8.0024V19.1739H5.20481ZM6.89638 12.9956V11.3978C6.89638 11.0286 6.77348 10.7232 6.52771 10.4817C6.28193 10.2403 5.97107 10.1196 5.59518 10.1196H4.77108C4.2506 10.1196 3.88192 10.2403 3.66505 10.4817C3.46265 10.709 3.36144 11.0499 3.36144 11.5043V12.9956H6.89638ZM11.8371 8.52173H13.572V9.03304C14.0202 8.69217 14.5985 8.52173 15.3069 8.52173H15.8708C17.0419 8.52173 17.9093 8.7916 18.4732 9.3313C19.0515 9.871 19.3407 10.7374 19.3407 11.9304V19.1739H17.4973V11.5043C17.4973 11.0783 17.3672 10.7445 17.1069 10.503C16.8612 10.2474 16.5214 10.1196 16.0877 10.1196H15.0901C14.613 10.1196 14.2588 10.2474 14.0274 10.503C13.7961 10.7445 13.6804 11.0072 13.6804 11.2913V19.1739H11.8371V8.52173ZM31.8049 19.1739C30.5328 19.1739 29.6002 18.9112 29.0073 18.3856C28.4146 17.8459 28.1182 16.9725 28.1182 15.7652V11.9304C28.1182 10.709 28.3858 9.83551 28.9206 9.30999C29.4556 8.78448 30.3447 8.52173 31.588 8.52173H32.1736C33.2002 8.52173 33.9736 8.80578 34.4941 9.37391C35.0291 9.92782 35.2965 10.7445 35.2965 11.8239V14.5935H29.9615V16.1913C29.9615 16.6316 30.099 16.9725 30.3736 17.2139C30.6484 17.4553 31.0533 17.5761 31.588 17.5761H34.6025V19.1739H31.8049ZM33.4965 12.9956V11.3978C33.4965 11.0286 33.3737 10.7232 33.1278 10.4817C32.8821 10.2403 32.5713 10.1196 32.1953 10.1196H31.3712C30.8507 10.1196 30.482 10.2403 30.2652 10.4817C30.0628 10.709 29.9615 11.0499 29.9615 11.5043V12.9956H33.4965ZM40.1721 19.1739C39.6807 19.1739 39.2469 19.0035 38.8709 18.6626C38.5096 18.3217 38.3287 17.782 38.3287 17.0435V4.26086H40.1721V16.937C40.1721 17.1642 40.23 17.3275 40.3456 17.427C40.4614 17.5264 40.6566 17.5761 40.9311 17.5761H41.3649V19.1739H40.1721Z" fill="#F5F5F5"/>
<path d="M93.2531 4.26086H54.2169V19.1739H93.2531V4.26086Z" fill="#FFD700"/>
<path d="M136.626 4.26086H95.4216V19.1739H136.626V4.26086Z" fill="#FF6B00"/>
<path d="M177.831 4.26086H138.795V19.1739H177.831V4.26086Z" fill="#E10600"/>
<path d="M159.669 23.8035V46.5632H154.724V23.8035H159.669ZM179.231 23.8035L178.349 24.6619L167.534 35.1833L178.349 45.7048L179.231 46.5632H172.194L172.047 46.4158L163.317 37.6707H160.247V32.6951H163.318L172.047 23.95L172.194 23.8035H179.231Z" fill="white" stroke="white"/>
<path d="M151.961 23.8035V28.7488H137.228C136.799 28.7488 136.549 28.8603 136.397 29.0115C136.25 29.1593 136.135 29.4162 136.135 29.8718V40.5242C136.135 40.9329 136.242 41.1874 136.397 41.3533C136.563 41.5099 136.818 41.6179 137.228 41.6179H151.961V46.5632H137.228C136.827 46.5632 136.401 46.518 135.951 46.4324L135.938 46.4304V46.4294C135.488 46.3309 135.042 46.1845 134.599 45.99L134.595 45.988C134.154 45.7897 133.733 45.5368 133.33 45.2322L133.323 45.2273C132.911 44.9038 132.545 44.5202 132.226 44.0798L132.217 44.0691V44.0681C131.904 43.6093 131.657 43.0896 131.472 42.5134L131.471 42.5105C131.281 41.9077 131.189 41.2438 131.189 40.5242V29.8416C131.189 29.4407 131.234 29.0191 131.32 28.5779L131.322 28.5691C131.421 28.109 131.568 27.6605 131.765 27.2244C131.964 26.7709 132.223 26.3417 132.54 25.9373C132.784 25.6264 133.061 25.3448 133.372 25.0925L133.694 24.8494C134.154 24.5245 134.676 24.2712 135.254 24.0857C135.848 23.8951 136.508 23.8035 137.228 23.8035H151.961Z" fill="white" stroke="white"/>
<path d="M119.004 23.5C120.367 23.5 121.636 23.738 122.804 24.2197H122.805C123.976 24.6988 124.994 25.367 125.853 26.2256H125.852C126.711 27.0749 127.38 28.0931 127.859 29.2734L128.027 29.7197C128.396 30.7727 128.578 31.9023 128.578 33.1045V37.2617C128.578 38.6452 128.341 39.9297 127.859 41.1084C127.38 42.2793 126.711 43.2968 125.853 44.1553C124.994 45.0138 123.976 45.6821 122.805 46.1611L122.803 46.1621C121.635 46.6335 120.367 46.8662 119.004 46.8662H113.663C112.3 46.8662 111.028 46.6338 109.851 46.1631L109.847 46.1611C108.676 45.6821 107.658 45.0138 106.8 44.1553C105.942 43.2975 105.269 42.2808 104.78 41.1113L104.778 41.1084C104.296 39.9297 104.059 38.6452 104.059 37.2617V33.1045C104.059 31.7307 104.296 30.4516 104.778 29.2734L104.779 29.2715C105.268 28.0913 105.942 27.0728 106.802 26.2236C107.66 25.3662 108.677 24.6984 109.847 24.2197C111.025 23.7379 112.299 23.5 113.663 23.5H119.004ZM113.663 28.4453C112.95 28.4453 112.31 28.5622 111.738 28.7891L111.734 28.791C111.169 29.0098 110.688 29.3218 110.284 29.7256L110.279 29.7295C109.878 30.1218 109.562 30.6026 109.333 31.1797C109.117 31.74 109.004 32.3794 109.004 33.1045V37.2617C109.004 37.9846 109.116 38.6285 109.332 39.1992L109.422 39.4082C109.642 39.8869 109.93 40.3016 110.284 40.6562H110.283C110.688 41.0511 111.173 41.3635 111.741 41.5928H111.74C112.312 41.8092 112.951 41.9209 113.663 41.9209H118.974C119.688 41.9209 120.323 41.8085 120.884 41.5918L121.097 41.502C121.583 41.283 122 41.0003 122.353 40.6562C122.756 40.2525 123.068 39.7712 123.287 39.2061L123.289 39.2021C123.516 38.631 123.633 37.986 123.633 37.2617V33.1045C123.633 32.3802 123.516 31.7419 123.29 31.1826L123.286 31.1729C123.067 30.5987 122.757 30.1203 122.358 29.7295L122.349 29.7217V29.7207C121.958 29.3211 121.48 29.0108 120.905 28.792L120.896 28.7881C120.335 28.562 119.706 28.4453 119.004 28.4453H113.663Z" fill="white" stroke="white"/>
<path d="M92.2676 23.8035C93.6319 23.8035 94.9062 24.0414 96.084 24.5232C97.254 25.0018 98.2708 25.6696 99.1289 26.5271L99.4424 26.8542C100.152 27.6336 100.717 28.5412 101.136 29.573L101.309 30.0203C101.686 31.074 101.872 32.2047 101.872 33.408V36.9587C101.872 38.3435 101.629 39.6288 101.136 40.8083L101.135 40.8074C100.656 41.9771 99.9887 42.9945 99.1309 43.8523L99.1289 43.8542C98.2706 44.7018 97.2535 45.364 96.084 45.8425C94.9062 46.3244 93.6319 46.5632 92.2676 46.5632H81.6152C81.2714 46.5632 80.9428 46.5011 80.6348 46.3728C80.339 46.2496 80.074 46.0806 79.8457 45.865L79.8359 45.8552L79.8262 45.8445C79.6106 45.6163 79.4416 45.3521 79.3184 45.0564C79.1899 44.7481 79.1279 44.4191 79.1279 44.075V26.2908C79.128 25.9544 79.1909 25.6309 79.3184 25.325C79.4416 25.0292 79.6106 24.7651 79.8262 24.5369L79.8311 24.532L79.8359 24.5261C80.0651 24.297 80.3331 24.1196 80.6348 23.9939C80.9428 23.8656 81.2714 23.8035 81.6152 23.8035H92.2676ZM84.0732 41.6179H92.2676C92.8938 41.6179 93.4589 41.5313 93.9668 41.364L94.1816 41.2869C94.7581 41.0575 95.2441 40.7455 95.6465 40.3533L95.7939 40.198C96.1272 39.8275 96.3896 39.3968 96.5811 38.9021L96.583 38.8982C96.8096 38.3272 96.9267 37.6828 96.9268 36.9587V33.408C96.9268 32.6947 96.8099 32.055 96.583 31.4832L96.5801 31.4763C96.3613 30.9021 96.0509 30.4238 95.6514 30.033L95.6465 30.0291C95.244 29.6266 94.759 29.3147 94.1836 29.0955L94.1748 29.0916C93.6146 28.8657 92.981 28.7488 92.2676 28.7488H84.0732V41.6179Z" fill="white" stroke="white"/>
<path d="M66.6844 23.8035C68.0487 23.8035 69.3231 24.0414 70.5009 24.5232C71.6708 25.0018 72.6877 25.6696 73.5458 26.5271L73.8593 26.8542C74.5693 27.6336 75.1337 28.5412 75.5526 29.573L75.7255 30.0203C76.1024 31.074 76.2889 32.2047 76.2889 33.408V36.9587C76.2889 38.3435 76.0459 39.6288 75.5526 40.8083L75.5516 40.8074C75.0727 41.9771 74.4056 42.9945 73.5477 43.8523L73.5458 43.8542C72.6875 44.7018 71.6704 45.364 70.5009 45.8425C69.3231 46.3244 68.0487 46.5632 66.6844 46.5632H56.0321C55.6883 46.5632 55.3597 46.5011 55.0516 46.3728C54.7558 46.2496 54.4908 46.0806 54.2626 45.865L54.2528 45.8552L54.243 45.8445C54.0275 45.6163 53.8585 45.3521 53.7352 45.0564C53.6068 44.7481 53.5448 44.4191 53.5448 44.075V26.2908C53.5449 25.9544 53.6078 25.6309 53.7352 25.325C53.8585 25.0292 54.0275 24.7651 54.243 24.5369L54.2479 24.532L54.2528 24.5261C54.482 24.297 54.75 24.1196 55.0516 23.9939C55.3597 23.8656 55.6882 23.8035 56.0321 23.8035H66.6844ZM58.4901 41.6179H66.6844C67.3107 41.6179 67.8758 41.5313 68.3837 41.364L68.5985 41.2869C69.1749 41.0575 69.661 40.7455 70.0634 40.3533L70.2108 40.198C70.5441 39.8275 70.8064 39.3968 70.9979 38.9021L70.9999 38.8982C71.2264 38.3272 71.3436 37.6828 71.3436 36.9587V33.408C71.3436 32.6947 71.2268 32.055 70.9999 31.4832L70.9969 31.4763C70.7782 30.9021 70.4678 30.4238 70.0682 30.033L70.0634 30.0291C69.6609 29.6266 69.1759 29.3147 68.6005 29.0955L68.5917 29.0916C68.0315 28.8657 67.3979 28.7488 66.6844 28.7488H58.4901V41.6179Z" fill="white" stroke="white"/>
<path d="M47.4896 23.8035C47.8261 23.8035 48.1495 23.8664 48.4554 23.9939C48.7571 24.1196 49.0251 24.297 49.2543 24.5261C49.4835 24.7554 49.6617 25.0232 49.7875 25.325C49.9149 25.6309 49.9778 25.9544 49.9779 26.2908V46.5632H45.0326V41.2214H32.1635V46.5632H27.2181V35.1833C27.2181 33.5368 27.5014 32.0093 28.0746 30.6082C28.6449 29.2143 29.4408 28.0087 30.4623 26.9978C31.4825 25.9882 32.6872 25.204 34.0707 24.6443C35.461 24.0818 36.9721 23.8035 38.598 23.8035H47.4896ZM38.598 28.7488C38.507 28.7488 38.2755 28.7654 37.8754 28.8064L37.8636 28.8083V28.8074C37.5201 28.8345 37.1021 28.9133 36.6058 29.0496L36.6049 29.0486C36.139 29.1793 35.6362 29.3836 35.0951 29.6638C34.5852 29.9279 34.1092 30.2948 33.6693 30.7722C33.2421 31.2358 32.8777 31.8289 32.5824 32.5623C32.309 33.2562 32.1635 34.1252 32.1635 35.1833V36.2761H45.0326V28.7488H38.598Z" fill="white" stroke="white"/>
<path d="M17.4453 23.8035C18.3759 23.8035 19.2267 23.9259 19.9922 24.1765L19.9932 24.1755C20.7415 24.4108 21.4092 24.7345 21.9912 25.1501C22.5772 25.5516 23.0772 26.0219 23.4854 26.5613L23.7773 26.9617C24.0557 27.3671 24.2934 27.7888 24.4883 28.2273H24.4873C24.7541 28.7948 24.9484 29.3756 25.0674 29.9695L25.1445 30.3962C25.2107 30.8174 25.2441 31.2245 25.2441 31.6169V33.408C25.2441 34.3486 25.1283 35.2048 24.8877 35.9705C24.6514 36.7223 24.3263 37.3972 23.9092 37.99C23.5075 38.565 23.0377 39.0621 22.501 39.4783C21.9759 39.8855 21.4207 40.2186 20.8369 40.4783L20.8379 40.4792C20.2688 40.7369 19.6864 40.9247 19.0918 41.0437L19.0928 41.0447C18.5185 41.1616 17.9688 41.2214 17.4453 41.2214H8.02344V36.2761H17.4229C17.8793 36.2382 18.2783 36.1472 18.625 36.0085C18.9853 35.8585 19.2836 35.6648 19.5264 35.4304C19.7666 35.1984 19.9551 34.9193 20.0918 34.5876C20.2265 34.2508 20.2988 33.8601 20.2988 33.408V31.6453C20.2514 31.1983 20.1559 30.7953 20.0146 30.4333C19.8747 30.0746 19.6863 29.7784 19.4531 29.5369L19.4463 29.53C19.2255 29.293 18.953 29.1057 18.6211 28.9695L18.6113 28.9646C18.2911 28.825 17.9058 28.7488 17.4453 28.7488H8.55371C8.1111 28.7488 7.85753 28.862 7.70801 29.0115C7.55683 29.1627 7.44538 29.4125 7.44531 29.8416V46.5632H2.5V29.8416C2.50004 28.7716 2.69263 27.8292 3.10156 27.0339L3.10449 27.0291C3.50618 26.2691 4.00789 25.6407 4.61523 25.157L4.61914 25.1541C5.22068 24.6838 5.87634 24.3416 6.58398 24.1306V24.1296C7.26839 23.9158 7.9162 23.8035 8.52344 23.8035H17.4453Z" fill="white" stroke="white"/>
</g>
<defs>
<clipPath id="clip0_82_15">
<rect width="180" height="49" fill="white"/>
</clipPath>
</defs>
</svg>
